# xmcd
#
# Track frame offsets: 
#        150
#        17913
#        37257
#        46804
#        78751
#        107084
#        138979
#        206232
#        222594
#        235547
#        253832
#        279698
#
# Disc length: 4255 seconds
#
# Revision: 0
# Processed by: cddbd v1.5.2PL0 Copyright (c) Steve Scherf et al.
# Submitted via: ExactAudioCopyFreeDBPlugin 1.0
#
DISCID=b0109d0c
DTITLE=Bakerloo - Bakerloo
DYEAR=2014
DGENRE=Blues Rock
TTITLE0=Big Bear Ffolly
TTITLE1=Bring It On Home
TTITLE2=Drivin' Bachwards
TTITLE3=Last Blues
TTITLE4=Gang Bang
TTITLE5=This Worried Feeling
TTITLE6=Son Of Moonshine
TTITLE7=Once Upon A Time (B-Side Of Single)
TTITLE8=Train
TTITLE9=Georgia
TTITLE10=This Worried Feeling (Alternate Take)
TTITLE11=Son Of Moonshine Part One (Alternate Take)
EXTD=
EXTT0=
EXTT1=
EXTT2=
EXTT3=
EXTT4=
EXTT5=
EXTT6=
EXTT7=
EXTT8=
EXTT9=
EXTT10=
EXTT11=
PLAYORDER=
